<svg width="112" height="31" viewBox="0 0 112 31" fill="none" xmlns="http://www.w3.org/2000/svg">
<path d="M19.0455 8.40731C18.835 7.78122 18.5444 7.22083 18.1737 6.72614C17.8115 6.22372 17.3735 5.79473 16.8597 5.43917C16.3543 5.08361 15.7731 4.81694 15.1161 4.63916C14.459 4.45366 13.7431 4.3609 12.9681 4.3609C11.5783 4.3609 10.34 4.68168 9.25342 5.32323C8.16681 5.96478 7.31185 6.90778 6.68852 8.15224C6.07362 9.38896 5.76617 10.8962 5.76617 12.674C5.76617 14.4673 6.07362 15.9861 6.68852 17.2306C7.30342 18.475 8.15839 19.4219 9.25342 20.0712C10.3485 20.7127 11.6204 21.0335 13.0692 21.0335C14.3832 21.0335 15.5204 20.8016 16.4806 20.3378C17.4493 19.8741 18.1948 19.2171 18.717 18.3668C19.2393 17.5088 19.5828 16.6547 19.5828 15.503H16.9102V12.1407H24.0364V14.9929C24.0364 17.0257 23.5647 18.7842 22.6212 20.2683C21.6778 21.7523 20.3806 22.8963 18.7297 23.7002C17.0787 24.4963 15.1834 24.8944 13.0439 24.8944C10.6601 24.8944 8.56692 24.4036 6.76433 23.4219C4.97016 22.4325 3.56768 21.0296 2.55688 19.2132C1.5545 17.389 1.05331 15.2248 1.05331 12.7204C1.05331 10.8035 1.34813 9.09138 1.93776 7.58412C2.53582 6.07686 3.36973 4.79762 4.43949 3.7464C5.50925 2.68746 6.76433 1.88359 8.20472 1.33479C9.64511 0.778263 11.2118 0.5 12.9049 0.5C14.3369 0.5 15.672 0.693238 16.9102 1.07972C18.1485 1.45846 19.2477 1.99953 20.208 2.70292C21.1766 3.4063 21.9726 4.24109 22.596 5.20728C23.2193 6.17348 23.6278 7.24015 23.8216 8.40731H19.0455Z" fill="#05353A"/>
<path d="M40.5761 16.5984V6.27951H45.15V24.0884H40.7151V20.9231H40.5129C40.0749 21.9202 39.3547 22.7357 38.3524 23.3695C37.3584 24.0033 36.1328 24.3202 34.6756 24.3202C33.4036 24.3202 32.2791 24.0613 31.302 23.5434C30.3333 23.0178 29.5752 22.2565 29.0277 21.2593C28.4802 20.2545 28.2065 19.041 28.2065 17.6187V6.27951H32.7803V16.9695C32.7803 18.098 33.1173 18.9946 33.7911 19.6593C34.465 20.3241 35.3494 20.6564 36.4445 20.6564C37.1183 20.6564 37.7711 20.5057 38.4029 20.2043C39.0346 19.9028 39.5527 19.4545 39.957 18.8593C40.3697 18.2564 40.5761 17.5028 40.5761 16.5984Z" fill="#05353A"/>
<path d="M58.3188 24.4362C56.4235 24.4362 54.781 24.0536 53.3911 23.2883C52.0013 22.5231 50.9231 21.4526 50.1566 20.0767C49.3985 18.7009 49.0194 17.0931 49.0194 15.2535C49.0194 13.4139 49.3985 11.8023 50.1566 10.4187C50.9231 9.03509 52.0013 7.96069 53.3911 7.19546C54.781 6.43024 56.4235 6.04763 58.3188 6.04763C60.214 6.04763 61.8566 6.43024 63.2464 7.19546C64.6363 7.96069 65.7103 9.03509 66.4684 10.4187C67.2349 11.8023 67.6181 13.4139 67.6181 15.2535C67.6181 17.0931 67.2349 18.7009 66.4684 20.0767C65.7103 21.4526 64.6363 22.5231 63.2464 23.2883C61.8566 24.0536 60.214 24.4362 58.3188 24.4362ZM58.3441 21.0738C59.3717 21.0738 60.2309 20.8149 60.9216 20.297C61.6123 19.7714 62.1261 19.068 62.4631 18.1869C62.8084 17.3057 62.9811 16.324 62.9811 15.2419C62.9811 14.152 62.8084 13.1665 62.4631 12.2854C62.1261 11.3965 61.6123 10.6892 60.9216 10.1636C60.2309 9.638 59.3717 9.37519 58.3441 9.37519C57.2912 9.37519 56.4151 9.638 55.716 10.1636C55.0253 10.6892 54.5072 11.3965 54.1619 12.2854C53.825 13.1665 53.6565 14.152 53.6565 15.2419C53.6565 16.324 53.825 17.3057 54.1619 18.1869C54.5072 19.068 55.0253 19.7714 55.716 20.297C56.4151 20.8149 57.2912 21.0738 58.3441 21.0738ZM58.3314 30.5C57.5986 30.5 56.9711 30.2758 56.4488 29.8275C55.935 29.3792 55.6781 28.842 55.6781 28.2159C55.6781 27.5898 55.935 27.0526 56.4488 26.6043C56.9711 26.156 57.5944 25.9318 58.3188 25.9318C59.0516 25.9318 59.6749 26.156 60.1888 26.6043C60.711 27.0526 60.9721 27.5898 60.9721 28.2159C60.9721 28.842 60.711 29.3792 60.1888 29.8275C59.6749 30.2758 59.0558 30.5 58.3314 30.5Z" fill="#05353A"/>
<path d="M76.0741 13.6535V24.0884H71.5002V6.27951H75.8719V9.30563H76.0994C76.5458 8.30852 77.2576 7.51624 78.2347 6.92879C79.2202 6.34135 80.4374 6.04763 81.8862 6.04763C83.2255 6.04763 84.3921 6.31043 85.3861 6.83604C86.3885 7.36165 87.1634 8.12301 87.7109 9.12012C88.2669 10.1172 88.5406 11.3269 88.5322 12.7491V24.0884H83.9583V13.3984C83.9583 12.2081 83.6214 11.2767 82.9475 10.6042C82.2821 9.93172 81.3598 9.59548 80.1805 9.59548C79.3803 9.59548 78.6685 9.7578 78.0452 10.0824C77.4303 10.3994 76.9459 10.8593 76.5921 11.4622C76.2468 12.0651 76.0741 12.7955 76.0741 13.6535Z" fill="#05353A"/>
<path d="M101.647 24.4362C99.7521 24.4362 98.1095 24.0536 96.7197 23.2883C95.3298 22.5231 94.2516 21.4526 93.4851 20.0767C92.727 18.7009 92.348 17.0931 92.348 15.2535C92.348 13.4139 92.727 11.8023 93.4851 10.4187C94.2516 9.03509 95.3298 7.96069 96.7197 7.19546C98.1095 6.43024 99.7521 6.04763 101.647 6.04763C103.543 6.04763 105.185 6.43024 106.575 7.19546C107.965 7.96069 109.039 9.03509 109.797 10.4187C110.563 11.8023 110.947 13.4139 110.947 15.2535C110.947 17.0931 110.563 18.7009 109.797 20.0767C109.039 21.4526 107.965 22.5231 106.575 23.2883C105.185 24.0536 103.543 24.4362 101.647 24.4362ZM101.673 21.0738C102.7 21.0738 103.559 20.8149 104.25 20.297C104.941 19.7714 105.455 19.068 105.792 18.1869C106.137 17.3057 106.31 16.324 106.31 15.2419C106.31 14.152 106.137 13.1665 105.792 12.2854C105.455 11.3965 104.941 10.6892 104.25 10.1636C103.559 9.638 102.7 9.37519 101.673 9.37519C100.62 9.37519 99.7437 9.638 99.0445 10.1636C98.3538 10.6892 97.8358 11.3965 97.4904 12.2854C97.1535 13.1665 96.985 14.152 96.985 15.2419C96.985 16.324 97.1535 17.3057 97.4904 18.1869C97.8358 19.068 98.3538 19.7714 99.0445 20.297C99.7437 20.8149 100.62 21.0738 101.673 21.0738ZM101.66 30.5C100.927 30.5 100.3 30.2758 99.7774 29.8275C99.2635 29.3792 99.0066 28.842 99.0066 28.2159C99.0066 27.5898 99.2635 27.0526 99.7774 26.6043C100.3 26.156 100.923 25.9318 101.647 25.9318C102.38 25.9318 103.003 26.156 103.517 26.6043C104.04 27.0526 104.301 27.5898 104.301 28.2159C104.301 28.842 104.04 29.3792 103.517 29.8275C103.003 30.2758 102.384 30.5 101.66 30.5Z" fill="#05353A"/>
<path d="M19.0455 8.40731C18.835 7.78122 18.5444 7.22083 18.1737 6.72614C17.8115 6.22372 17.3735 5.79473 16.8597 5.43917C16.3543 5.08361 15.7731 4.81694 15.1161 4.63916C14.459 4.45366 13.7431 4.3609 12.9681 4.3609C11.5783 4.3609 10.34 4.68168 9.25342 5.32323C8.16681 5.96478 7.31185 6.90778 6.68852 8.15224C6.07362 9.38896 5.76617 10.8962 5.76617 12.674C5.76617 14.4673 6.07362 15.9861 6.68852 17.2306C7.30342 18.475 8.15839 19.4219 9.25342 20.0712C10.3485 20.7127 11.6204 21.0335 13.0692 21.0335C14.3832 21.0335 15.5204 20.8016 16.4806 20.3378C17.4493 19.8741 18.1948 19.2171 18.717 18.3668C19.2393 17.5088 19.5828 16.6547 19.5828 15.503H16.9102V12.1407H24.0364V14.9929C24.0364 17.0257 23.5647 18.7842 22.6212 20.2683C21.6778 21.7523 20.3806 22.8963 18.7297 23.7002C17.0787 24.4963 15.1834 24.8944 13.0439 24.8944C10.6601 24.8944 8.56692 24.4036 6.76433 23.4219C4.97016 22.4325 3.56768 21.0296 2.55688 19.2132C1.5545 17.389 1.05331 15.2248 1.05331 12.7204C1.05331 10.8035 1.34813 9.09138 1.93776 7.58412C2.53582 6.07686 3.36973 4.79762 4.43949 3.7464C5.50925 2.68746 6.76433 1.88359 8.20472 1.33479C9.64511 0.778263 11.2118 0.5 12.9049 0.5C14.3369 0.5 15.672 0.693238 16.9102 1.07972C18.1485 1.45846 19.2477 1.99953 20.208 2.70292C21.1766 3.4063 21.9726 4.24109 22.596 5.20728C23.2193 6.17348 23.6278 7.24015 23.8216 8.40731H19.0455Z" stroke="#05353A" stroke-width="0.850271"/>
<path d="M40.5761 16.5984V6.27951H45.15V24.0884H40.7151V20.9231H40.5129C40.0749 21.9202 39.3547 22.7357 38.3524 23.3695C37.3584 24.0033 36.1328 24.3202 34.6756 24.3202C33.4036 24.3202 32.2791 24.0613 31.302 23.5434C30.3333 23.0178 29.5752 22.2565 29.0277 21.2593C28.4802 20.2545 28.2065 19.041 28.2065 17.6187V6.27951H32.7803V16.9695C32.7803 18.098 33.1173 18.9946 33.7911 19.6593C34.465 20.3241 35.3494 20.6564 36.4445 20.6564C37.1183 20.6564 37.7711 20.5057 38.4029 20.2043C39.0346 19.9028 39.5527 19.4545 39.957 18.8593C40.3697 18.2564 40.5761 17.5028 40.5761 16.5984Z" stroke="#05353A" stroke-width="0.850271"/>
<path d="M58.3188 24.4362C56.4235 24.4362 54.781 24.0536 53.3911 23.2883C52.0013 22.5231 50.9231 21.4526 50.1566 20.0767C49.3985 18.7009 49.0194 17.0931 49.0194 15.2535C49.0194 13.4139 49.3985 11.8023 50.1566 10.4187C50.9231 9.03509 52.0013 7.96069 53.3911 7.19546C54.781 6.43024 56.4235 6.04763 58.3188 6.04763C60.214 6.04763 61.8566 6.43024 63.2464 7.19546C64.6363 7.96069 65.7103 9.03509 66.4684 10.4187C67.2349 11.8023 67.6181 13.4139 67.6181 15.2535C67.6181 17.0931 67.2349 18.7009 66.4684 20.0767C65.7103 21.4526 64.6363 22.5231 63.2464 23.2883C61.8566 24.0536 60.214 24.4362 58.3188 24.4362ZM58.3441 21.0738C59.3717 21.0738 60.2309 20.8149 60.9216 20.297C61.6123 19.7714 62.1261 19.068 62.4631 18.1869C62.8084 17.3057 62.9811 16.324 62.9811 15.2419C62.9811 14.152 62.8084 13.1665 62.4631 12.2854C62.1261 11.3965 61.6123 10.6892 60.9216 10.1636C60.2309 9.638 59.3717 9.37519 58.3441 9.37519C57.2912 9.37519 56.4151 9.638 55.716 10.1636C55.0253 10.6892 54.5072 11.3965 54.1619 12.2854C53.825 13.1665 53.6565 14.152 53.6565 15.2419C53.6565 16.324 53.825 17.3057 54.1619 18.1869C54.5072 19.068 55.0253 19.7714 55.716 20.297C56.4151 20.8149 57.2912 21.0738 58.3441 21.0738ZM58.3314 30.5C57.5986 30.5 56.9711 30.2758 56.4488 29.8275C55.935 29.3792 55.6781 28.842 55.6781 28.2159C55.6781 27.5898 55.935 27.0526 56.4488 26.6043C56.9711 26.156 57.5944 25.9318 58.3188 25.9318C59.0516 25.9318 59.6749 26.156 60.1888 26.6043C60.711 27.0526 60.9721 27.5898 60.9721 28.2159C60.9721 28.842 60.711 29.3792 60.1888 29.8275C59.6749 30.2758 59.0558 30.5 58.3314 30.5Z" stroke="#05353A" stroke-width="0.850271"/>
<path d="M76.0741 13.6535V24.0884H71.5002V6.27951H75.8719V9.30563H76.0994C76.5458 8.30852 77.2576 7.51624 78.2347 6.92879C79.2202 6.34135 80.4374 6.04763 81.8862 6.04763C83.2255 6.04763 84.3921 6.31043 85.3861 6.83604C86.3885 7.36165 87.1634 8.12301 87.7109 9.12012C88.2669 10.1172 88.5406 11.3269 88.5322 12.7491V24.0884H83.9583V13.3984C83.9583 12.2081 83.6214 11.2767 82.9475 10.6042C82.2821 9.93172 81.3598 9.59548 80.1805 9.59548C79.3803 9.59548 78.6685 9.7578 78.0452 10.0824C77.4303 10.3994 76.9459 10.8593 76.5921 11.4622C76.2468 12.0651 76.0741 12.7955 76.0741 13.6535Z" stroke="#05353A" stroke-width="0.850271"/>
<path d="M101.647 24.4362C99.7521 24.4362 98.1095 24.0536 96.7197 23.2883C95.3298 22.5231 94.2516 21.4526 93.4851 20.0767C92.727 18.7009 92.348 17.0931 92.348 15.2535C92.348 13.4139 92.727 11.8023 93.4851 10.4187C94.2516 9.03509 95.3298 7.96069 96.7197 7.19546C98.1095 6.43024 99.7521 6.04763 101.647 6.04763C103.543 6.04763 105.185 6.43024 106.575 7.19546C107.965 7.96069 109.039 9.03509 109.797 10.4187C110.563 11.8023 110.947 13.4139 110.947 15.2535C110.947 17.0931 110.563 18.7009 109.797 20.0767C109.039 21.4526 107.965 22.5231 106.575 23.2883C105.185 24.0536 103.543 24.4362 101.647 24.4362ZM101.673 21.0738C102.7 21.0738 103.559 20.8149 104.25 20.297C104.941 19.7714 105.455 19.068 105.792 18.1869C106.137 17.3057 106.31 16.324 106.31 15.2419C106.31 14.152 106.137 13.1665 105.792 12.2854C105.455 11.3965 104.941 10.6892 104.25 10.1636C103.559 9.638 102.7 9.37519 101.673 9.37519C100.62 9.37519 99.7437 9.638 99.0445 10.1636C98.3538 10.6892 97.8358 11.3965 97.4904 12.2854C97.1535 13.1665 96.985 14.152 96.985 15.2419C96.985 16.324 97.1535 17.3057 97.4904 18.1869C97.8358 19.068 98.3538 19.7714 99.0445 20.297C99.7437 20.8149 100.62 21.0738 101.673 21.0738ZM101.66 30.5C100.927 30.5 100.3 30.2758 99.7774 29.8275C99.2635 29.3792 99.0066 28.842 99.0066 28.2159C99.0066 27.5898 99.2635 27.0526 99.7774 26.6043C100.3 26.156 100.923 25.9318 101.647 25.9318C102.38 25.9318 103.003 26.156 103.517 26.6043C104.04 27.0526 104.301 27.5898 104.301 28.2159C104.301 28.842 104.04 29.3792 103.517 29.8275C103.003 30.2758 102.384 30.5 101.66 30.5Z" stroke="#05353A" stroke-width="0.850271"/>
</svg>
