<svg width="387" height="109" viewBox="0 0 387 109" fill="none" xmlns="http://www.w3.org/2000/svg">
<path d="M64.7064 29.5585C63.9725 27.3765 62.9597 25.4234 61.668 23.6993C60.4056 21.9483 58.8791 20.4532 57.0883 19.214C55.3269 17.9748 53.3013 17.0454 51.0114 16.4258C48.7216 15.7793 46.2262 15.456 43.5254 15.456C38.6815 15.456 34.366 16.574 30.579 18.8099C26.7919 21.0458 23.8122 24.3324 21.6398 28.6695C19.4967 32.9798 18.4252 38.2329 18.4252 44.4288C18.4252 50.6787 19.4967 55.9722 21.6398 60.3093C23.7829 64.6465 26.7626 67.9465 30.579 70.2094C34.3954 72.4453 38.8283 73.5633 43.8777 73.5633C48.4574 73.5633 52.4206 72.7551 55.7673 71.1388C59.1433 69.5225 61.7414 67.2326 63.5615 64.2694C65.3817 61.2791 66.5789 58.3024 66.5789 54.2885H57.2645V42.57H82.1004V52.5105C82.1004 59.5955 80.4565 65.7241 77.1685 70.8963C73.8805 76.0686 69.3595 80.0556 63.6056 82.8572C57.8516 85.6319 51.2463 87.0193 43.7896 87.0193C35.4816 87.0193 28.1864 85.3087 21.904 81.8874C15.651 78.4392 10.763 73.5498 7.24022 67.2192C3.74674 60.8616 2 53.3187 2 44.5905C2 37.9096 3.02749 31.9426 5.08248 26.6895C7.16682 21.4364 10.0732 16.9781 13.8015 13.3144C17.5298 9.62372 21.904 6.82207 26.9241 4.90941C31.9441 2.9698 37.4045 2 43.3052 2C48.2959 2 52.949 2.67347 57.2645 4.02042C61.5799 5.34043 65.411 7.22616 68.7577 9.6776C72.1337 12.129 74.908 15.0384 77.0804 18.4058C79.2528 21.7732 80.6766 25.4908 81.3518 29.5585H64.7064Z" fill="#05353A"/>
<path d="M139.745 58.1062V22.1427H155.686V84.2101H140.229V73.1786H139.525C137.998 76.6537 135.488 79.4958 131.994 81.7047C128.53 83.9137 124.259 85.0182 119.18 85.0182C114.747 85.0182 110.828 84.1158 107.423 82.3109C104.047 80.479 101.405 77.8255 99.4963 74.3504C97.5881 70.8483 96.634 66.6189 96.634 61.6622V22.1427H112.575V59.3993C112.575 63.3324 113.749 66.4573 116.098 68.7741C118.446 71.0908 121.529 72.2492 125.345 72.2492C127.694 72.2492 129.969 71.7239 132.171 70.6733C134.372 69.6226 136.178 68.0602 137.587 65.9859C139.025 63.8846 139.745 61.2581 139.745 58.1062Z" fill="#05353A"/>
<path d="M201.581 85.4223C194.976 85.4223 189.252 84.0888 184.408 81.4219C179.564 78.7549 175.806 75.0239 173.135 70.2288C170.492 65.4336 169.171 59.8303 169.171 53.4188C169.171 47.0074 170.492 41.3906 173.135 36.5685C175.806 31.7465 179.564 28.002 184.408 25.335C189.252 22.6681 194.976 21.3346 201.581 21.3346C208.187 21.3346 213.911 22.6681 218.755 25.335C223.599 28.002 227.342 31.7465 229.984 36.5685C232.656 41.3906 233.992 47.0074 233.992 53.4188C233.992 59.8303 232.656 65.4336 229.984 70.2288C227.342 75.0239 223.599 78.7549 218.755 81.4219C213.911 84.0888 208.187 85.4223 201.581 85.4223ZM201.67 73.7039C205.251 73.7039 208.245 72.8014 210.653 70.9965C213.06 69.1647 214.851 66.7132 216.025 63.6422C217.229 60.5711 217.831 57.1499 217.831 53.3784C217.831 49.5801 217.229 46.1453 216.025 43.0743C214.851 39.9763 213.06 37.5114 210.653 35.6796C208.245 33.8477 205.251 32.9318 201.67 32.9318C198 32.9318 194.947 33.8477 192.51 35.6796C190.103 37.5114 188.297 39.9763 187.094 43.0743C185.92 46.1453 185.332 49.5801 185.332 53.3784C185.332 57.1499 185.92 60.5711 187.094 63.6422C188.297 66.7132 190.103 69.1647 192.51 70.9965C194.947 72.8014 198 73.7039 201.67 73.7039ZM201.626 106.556C199.071 106.556 196.884 105.775 195.064 104.212C193.273 102.65 192.378 100.778 192.378 98.5955C192.378 96.4134 193.273 94.5411 195.064 92.9787C196.884 91.4162 199.057 90.635 201.581 90.635C204.136 90.635 206.308 91.4162 208.099 92.9787C209.919 94.5411 210.829 96.4134 210.829 98.5955C210.829 100.778 209.919 102.65 208.099 104.212C206.308 105.775 204.15 106.556 201.626 106.556Z" fill="#05353A"/>
<path d="M263.462 47.8425V84.2101H247.521V22.1427H262.758V32.6893H263.55C265.106 29.2142 267.587 26.453 270.992 24.4056C274.427 22.3583 278.669 21.3346 283.719 21.3346C288.386 21.3346 292.452 22.2505 295.916 24.0823C299.41 25.9142 302.111 28.5677 304.019 32.0428C305.956 35.5179 306.911 39.7339 306.881 44.6906V84.2101H290.94V46.9535C290.94 42.8049 289.766 39.5588 287.418 37.2151C285.098 34.8714 281.884 33.6995 277.774 33.6995C274.985 33.6995 272.504 34.2653 270.332 35.3967C268.189 36.5012 266.501 38.1041 265.268 40.2053C264.064 42.3065 263.462 44.8523 263.462 47.8425Z" fill="#05353A"/>
<path d="M352.59 85.4223C345.985 85.4223 340.26 84.0888 335.416 81.4219C330.572 78.7549 326.815 75.0239 324.143 70.2288C321.501 65.4336 320.18 59.8303 320.18 53.4188C320.18 47.0074 321.501 41.3906 324.143 36.5685C326.815 31.7465 330.572 28.002 335.416 25.335C340.26 22.6681 345.985 21.3346 352.59 21.3346C359.195 21.3346 364.92 22.6681 369.764 25.335C374.608 28.002 378.351 31.7465 380.993 36.5685C383.664 41.3906 385 47.0074 385 53.4188C385 59.8303 383.664 65.4336 380.993 70.2288C378.351 75.0239 374.608 78.7549 369.764 81.4219C364.92 84.0888 359.195 85.4223 352.59 85.4223ZM352.678 73.7039C356.26 73.7039 359.254 72.8014 361.661 70.9965C364.069 69.1647 365.859 66.7132 367.034 63.6422C368.237 60.5711 368.839 57.1499 368.839 53.3784C368.839 49.5801 368.237 46.1453 367.034 43.0743C365.859 39.9763 364.069 37.5114 361.661 35.6796C359.254 33.8477 356.26 32.9318 352.678 32.9318C349.008 32.9318 345.955 33.8477 343.519 35.6796C341.111 37.5114 339.306 39.9763 338.102 43.0743C336.928 46.1453 336.341 49.5801 336.341 53.3784C336.341 57.1499 336.928 60.5711 338.102 63.6422C339.306 66.7132 341.111 69.1647 343.519 70.9965C345.955 72.8014 349.008 73.7039 352.678 73.7039ZM352.634 106.556C350.08 106.556 347.893 105.775 346.073 104.212C344.282 102.65 343.387 100.778 343.387 98.5955C343.387 96.4134 344.282 94.5411 346.073 92.9787C347.893 91.4162 350.065 90.635 352.59 90.635C355.144 90.635 357.316 91.4162 359.107 92.9787C360.927 94.5411 361.837 96.4134 361.837 98.5955C361.837 100.778 360.927 102.65 359.107 104.212C357.316 105.775 355.159 106.556 352.634 106.556Z" fill="#05353A"/>
<path d="M64.7064 29.5585C63.9725 27.3765 62.9597 25.4234 61.668 23.6993C60.4056 21.9483 58.8791 20.4532 57.0883 19.214C55.3269 17.9748 53.3013 17.0454 51.0114 16.4258C48.7216 15.7793 46.2262 15.456 43.5254 15.456C38.6815 15.456 34.366 16.574 30.579 18.8099C26.7919 21.0458 23.8122 24.3324 21.6398 28.6695C19.4967 32.9798 18.4252 38.2329 18.4252 44.4288C18.4252 50.6787 19.4967 55.9722 21.6398 60.3093C23.7829 64.6465 26.7626 67.9465 30.579 70.2094C34.3954 72.4453 38.8283 73.5633 43.8777 73.5633C48.4574 73.5633 52.4206 72.7551 55.7673 71.1388C59.1433 69.5225 61.7414 67.2326 63.5615 64.2694C65.3817 61.2791 66.5789 58.3024 66.5789 54.2885H57.2645V42.57H82.1004V52.5105C82.1004 59.5955 80.4565 65.7241 77.1685 70.8963C73.8805 76.0686 69.3595 80.0556 63.6056 82.8572C57.8516 85.6319 51.2463 87.0193 43.7896 87.0193C35.4816 87.0193 28.1864 85.3087 21.904 81.8874C15.651 78.4392 10.763 73.5498 7.24022 67.2192C3.74674 60.8616 2 53.3187 2 44.5905C2 37.9096 3.02749 31.9426 5.08248 26.6895C7.16682 21.4364 10.0732 16.9781 13.8015 13.3144C17.5298 9.62372 21.904 6.82207 26.9241 4.90941C31.9441 2.9698 37.4045 2 43.3052 2C48.2959 2 52.949 2.67347 57.2645 4.02042C61.5799 5.34043 65.411 7.22616 68.7577 9.6776C72.1337 12.129 74.908 15.0384 77.0804 18.4058C79.2528 21.7732 80.6766 25.4908 81.3518 29.5585H64.7064Z" stroke="#05353A" stroke-width="2.96336"/>
<path d="M139.745 58.1062V22.1427H155.686V84.2101H140.229V73.1786H139.525C137.998 76.6537 135.488 79.4958 131.994 81.7047C128.53 83.9137 124.259 85.0182 119.18 85.0182C114.747 85.0182 110.828 84.1158 107.423 82.3109C104.047 80.479 101.405 77.8255 99.4963 74.3504C97.5881 70.8483 96.634 66.6189 96.634 61.6622V22.1427H112.575V59.3993C112.575 63.3324 113.749 66.4573 116.098 68.7741C118.446 71.0908 121.529 72.2492 125.345 72.2492C127.694 72.2492 129.969 71.7239 132.171 70.6733C134.372 69.6226 136.178 68.0602 137.587 65.9859C139.025 63.8846 139.745 61.2581 139.745 58.1062Z" stroke="#05353A" stroke-width="2.96336"/>
<path d="M201.581 85.4223C194.976 85.4223 189.252 84.0888 184.408 81.4219C179.564 78.7549 175.806 75.0239 173.135 70.2288C170.492 65.4336 169.171 59.8303 169.171 53.4188C169.171 47.0074 170.492 41.3906 173.135 36.5685C175.806 31.7465 179.564 28.002 184.408 25.335C189.252 22.6681 194.976 21.3346 201.581 21.3346C208.187 21.3346 213.911 22.6681 218.755 25.335C223.599 28.002 227.342 31.7465 229.984 36.5685C232.656 41.3906 233.992 47.0074 233.992 53.4188C233.992 59.8303 232.656 65.4336 229.984 70.2288C227.342 75.0239 223.599 78.7549 218.755 81.4219C213.911 84.0888 208.187 85.4223 201.581 85.4223ZM201.67 73.7039C205.251 73.7039 208.245 72.8014 210.653 70.9965C213.06 69.1647 214.851 66.7132 216.025 63.6422C217.229 60.5711 217.831 57.1499 217.831 53.3784C217.831 49.5801 217.229 46.1453 216.025 43.0743C214.851 39.9763 213.06 37.5114 210.653 35.6796C208.245 33.8477 205.251 32.9318 201.67 32.9318C198 32.9318 194.947 33.8477 192.51 35.6796C190.103 37.5114 188.297 39.9763 187.094 43.0743C185.92 46.1453 185.332 49.5801 185.332 53.3784C185.332 57.1499 185.92 60.5711 187.094 63.6422C188.297 66.7132 190.103 69.1647 192.51 70.9965C194.947 72.8014 198 73.7039 201.67 73.7039ZM201.626 106.556C199.071 106.556 196.884 105.775 195.064 104.212C193.273 102.65 192.378 100.778 192.378 98.5955C192.378 96.4134 193.273 94.5411 195.064 92.9787C196.884 91.4162 199.057 90.635 201.581 90.635C204.136 90.635 206.308 91.4162 208.099 92.9787C209.919 94.5411 210.829 96.4134 210.829 98.5955C210.829 100.778 209.919 102.65 208.099 104.212C206.308 105.775 204.15 106.556 201.626 106.556Z" stroke="#05353A" stroke-width="2.96336"/>
<path d="M263.462 47.8425V84.2101H247.521V22.1427H262.758V32.6893H263.55C265.106 29.2142 267.587 26.453 270.992 24.4056C274.427 22.3583 278.669 21.3346 283.719 21.3346C288.386 21.3346 292.452 22.2505 295.916 24.0823C299.41 25.9142 302.111 28.5677 304.019 32.0428C305.956 35.5179 306.911 39.7339 306.881 44.6906V84.2101H290.94V46.9535C290.94 42.8049 289.766 39.5588 287.418 37.2151C285.098 34.8714 281.884 33.6995 277.774 33.6995C274.985 33.6995 272.504 34.2653 270.332 35.3967C268.189 36.5012 266.501 38.1041 265.268 40.2053C264.064 42.3065 263.462 44.8523 263.462 47.8425Z" stroke="#05353A" stroke-width="2.96336"/>
<path d="M352.59 85.4223C345.985 85.4223 340.26 84.0888 335.416 81.4219C330.572 78.7549 326.815 75.0239 324.143 70.2288C321.501 65.4336 320.18 59.8303 320.18 53.4188C320.18 47.0074 321.501 41.3906 324.143 36.5685C326.815 31.7465 330.572 28.002 335.416 25.335C340.26 22.6681 345.985 21.3346 352.59 21.3346C359.195 21.3346 364.92 22.6681 369.764 25.335C374.608 28.002 378.351 31.7465 380.993 36.5685C383.664 41.3906 385 47.0074 385 53.4188C385 59.8303 383.664 65.4336 380.993 70.2288C378.351 75.0239 374.608 78.7549 369.764 81.4219C364.92 84.0888 359.195 85.4223 352.59 85.4223ZM352.678 73.7039C356.26 73.7039 359.254 72.8014 361.661 70.9965C364.069 69.1647 365.859 66.7132 367.034 63.6422C368.237 60.5711 368.839 57.1499 368.839 53.3784C368.839 49.5801 368.237 46.1453 367.034 43.0743C365.859 39.9763 364.069 37.5114 361.661 35.6796C359.254 33.8477 356.26 32.9318 352.678 32.9318C349.008 32.9318 345.955 33.8477 343.519 35.6796C341.111 37.5114 339.306 39.9763 338.102 43.0743C336.928 46.1453 336.341 49.5801 336.341 53.3784C336.341 57.1499 336.928 60.5711 338.102 63.6422C339.306 66.7132 341.111 69.1647 343.519 70.9965C345.955 72.8014 349.008 73.7039 352.678 73.7039ZM352.634 106.556C350.08 106.556 347.893 105.775 346.073 104.212C344.282 102.65 343.387 100.778 343.387 98.5955C343.387 96.4134 344.282 94.5411 346.073 92.9787C347.893 91.4162 350.065 90.635 352.59 90.635C355.144 90.635 357.316 91.4162 359.107 92.9787C360.927 94.5411 361.837 96.4134 361.837 98.5955C361.837 100.778 360.927 102.65 359.107 104.212C357.316 105.775 355.159 106.556 352.634 106.556Z" stroke="#05353A" stroke-width="2.96336"/>
</svg>
