<svg width="36" height="36" viewBox="0 0 36 36" fill="none" xmlns="http://www.w3.org/2000/svg">
<path fill-rule="evenodd" clip-rule="evenodd" d="M16.3617 2.67004C13.4688 2.97936 10.7224 4.10097 8.44007 5.90524C6.15769 7.70952 4.43245 10.1228 3.46374 12.8662C2.49503 15.6096 2.32238 18.5711 2.96575 21.4085C3.60913 24.2459 5.04226 26.8433 7.09952 28.9006C9.15678 30.9578 11.7542 32.391 14.5916 33.0343C17.429 33.6777 20.3905 33.5051 23.1339 32.5363C25.8773 31.5676 28.2906 29.8424 30.0948 27.56C31.8991 25.2776 33.0207 22.5313 33.33 19.6384C32.274 20.9802 30.9456 22.0829 29.4324 22.8739C27.9192 23.6649 26.2555 24.1262 24.551 24.2274C22.8465 24.3286 21.1399 24.0675 19.5437 23.4611C17.9475 22.8547 16.4979 21.9169 15.2905 20.7095C14.0832 19.5022 13.1454 18.0526 12.539 16.4564C11.9326 14.8602 11.6714 13.1536 11.7727 11.4491C11.8739 9.74461 12.3352 8.08091 13.1262 6.56769C13.9172 5.05446 15.0199 3.72606 16.3617 2.67004ZM0.083374 18C0.083374 8.10504 8.10504 0.083374 18 0.083374C19.195 0.083374 19.7917 1.03504 19.895 1.79337C19.9934 2.52337 19.7234 3.45171 18.885 3.95837C17.64 4.70981 16.5822 5.73475 15.7919 6.95555C15.0017 8.17636 14.4996 9.56101 14.3238 11.0046C14.148 12.4482 14.303 13.9129 14.7771 15.2877C15.2513 16.6625 16.0321 17.9114 17.0604 18.9397C18.0887 19.968 19.3376 20.7488 20.7124 21.223C22.0872 21.6971 23.5519 21.8521 24.9955 21.6763C26.4391 21.5005 27.8237 20.9984 29.0445 20.2081C30.2653 19.4179 31.2903 18.3601 32.0417 17.115C32.5484 16.2767 33.4767 16.0067 34.2067 16.105C34.965 16.2084 35.9167 16.805 35.9167 18C35.9167 27.895 27.895 35.9167 18 35.9167C8.10504 35.9167 0.083374 27.895 0.083374 18Z" fill="#05353A"/>
</svg>
