<svg width="41" height="41" viewBox="0 0 41 41" fill="none" xmlns="http://www.w3.org/2000/svg">
<path fill-rule="evenodd" clip-rule="evenodd" d="M7.88336 14.7422C7.99024 14.6175 8.12065 14.5151 8.26713 14.4408C8.41361 14.3665 8.57329 14.3218 8.73705 14.3093C8.90081 14.2968 9.06544 14.3166 9.22152 14.3677C9.3776 14.4189 9.52208 14.5002 9.64669 14.6072L20.5 23.9089L31.3534 14.6072C31.6064 14.4041 31.9285 14.3073 32.2516 14.3374C32.5747 14.3674 32.8734 14.522 33.0847 14.7683C33.2959 15.0146 33.4031 15.3334 33.3836 15.6572C33.364 15.9811 33.2193 16.2847 32.98 16.5039L21.3134 26.5039C21.0868 26.698 20.7983 26.8047 20.5 26.8047C20.2017 26.8047 19.9132 26.698 19.6867 26.5039L8.02003 16.5039C7.76867 16.2881 7.61326 15.9813 7.58795 15.651C7.56263 15.3207 7.66949 14.9938 7.88503 14.7422" fill="#F5DEB3"/>
</svg>
