<svg width="50" height="50" viewBox="0 0 50 50" fill="none" xmlns="http://www.w3.org/2000/svg">
<g clip-path="url(#clip0_1741_480)">
<path d="M50 25C50 11.1939 38.8061 0 25 0C11.1939 0 0 11.1939 0 25C0 37.4771 9.14077 47.8203 21.0941 49.6977V32.2282H14.7448V25H21.0941V19.4909C21.0941 13.226 24.8277 9.76304 30.5372 9.76304C33.2724 9.76304 36.1342 10.2517 36.1342 10.2517V16.4042H32.9806C29.8762 16.4042 28.9059 18.3308 28.9059 20.3101V25H35.8388L34.7314 32.2282H28.9059V49.6977C40.8592 47.8238 50 37.4807 50 25Z" fill="#1977F3"/>
<path d="M34.7308 32.2284L35.8382 25.0001H28.9053V20.3102C28.9053 18.3344 29.8721 16.4043 32.98 16.4043H36.1335V10.2519C36.1335 10.2519 33.2718 9.76318 30.5366 9.76318C24.8271 9.76318 21.0935 13.2226 21.0935 19.4911V25.0001H14.7441V32.2284H21.0935V49.6978C22.3661 49.8982 23.6705 50.0001 24.9994 50.0001C26.3283 50.0001 27.6326 49.8947 28.9053 49.6978V32.2284H34.7308Z" fill="#FEFEFE"/>
</g>
<defs>
<clipPath id="clip0_1741_480">
<rect width="50" height="50" rx="25" fill="white"/>
</clipPath>
</defs>
</svg>
