<svg width="50" height="50" viewBox="0 0 50 50" fill="none" xmlns="http://www.w3.org/2000/svg">
<g clip-path="url(#clip0_1741_473)">
<path d="M25.0082 0C14.5709 0 11.5184 0.0107715 10.925 0.0599998C8.78314 0.238091 7.45032 0.575433 5.99827 1.29855C4.87926 1.85439 3.99672 2.49866 3.12573 3.40182C1.5395 5.04888 0.57814 7.0752 0.230121 9.48388C0.0609306 10.6532 0.0117018 10.8917 0.00170499 16.8645C-0.00213123 18.8554 0.00170499 21.4757 0.00170499 24.9902C0.00170499 35.4218 0.0132325 38.4721 0.0632356 39.0645C0.236281 41.1493 0.563134 42.4609 1.25532 43.8956C2.57815 46.642 5.10458 48.7037 8.08096 49.473C9.11154 49.7384 10.2498 49.8846 11.711 49.9538C12.3302 49.9808 18.6405 50 24.9547 50C31.2689 50 37.5831 49.9923 38.1868 49.9615C39.8788 49.8819 40.8613 49.75 41.9477 49.4692C44.9433 48.696 47.4236 46.6651 48.7733 43.8802C49.452 42.4801 49.7962 41.1185 49.9519 39.1425C49.9858 38.7117 50 31.8431 50 24.9837C50 18.1231 49.9846 11.2671 49.9508 10.8363C49.7931 8.82843 49.4489 7.47833 48.7483 6.05127C48.1734 4.88309 47.5351 4.0107 46.6084 3.11873C44.9544 1.53859 42.9317 0.576964 40.5214 0.229247C39.3535 0.060378 39.1209 0.0103748 33.1451 0H25.0082Z" fill="url(#paint0_radial_1741_473)"/>
<path d="M25.0082 0C14.5709 0 11.5184 0.0107715 10.925 0.0599998C8.78314 0.238091 7.45032 0.575433 5.99827 1.29855C4.87926 1.85439 3.99672 2.49866 3.12573 3.40182C1.5395 5.04888 0.57814 7.0752 0.230121 9.48388C0.0609306 10.6532 0.0117018 10.8917 0.00170499 16.8645C-0.00213123 18.8554 0.00170499 21.4757 0.00170499 24.9902C0.00170499 35.4218 0.0132325 38.4721 0.0632356 39.0645C0.236281 41.1493 0.563134 42.4609 1.25532 43.8956C2.57815 46.642 5.10458 48.7037 8.08096 49.473C9.11154 49.7384 10.2498 49.8846 11.711 49.9538C12.3302 49.9808 18.6405 50 24.9547 50C31.2689 50 37.5831 49.9923 38.1868 49.9615C39.8788 49.8819 40.8613 49.75 41.9477 49.4692C44.9433 48.696 47.4236 46.6651 48.7733 43.8802C49.452 42.4801 49.7962 41.1185 49.9519 39.1425C49.9858 38.7117 50 31.8431 50 24.9837C50 18.1231 49.9846 11.2671 49.9508 10.8363C49.7931 8.82843 49.4489 7.47833 48.7483 6.05127C48.1734 4.88309 47.5351 4.0107 46.6084 3.11873C44.9544 1.53859 42.9317 0.576964 40.5214 0.229247C39.3535 0.060378 39.1209 0.0103748 33.1451 0H25.0082Z" fill="url(#paint1_radial_1741_473)"/>
<path d="M25.0082 0C14.5709 0 11.5184 0.0107715 10.925 0.0599998C8.78314 0.238091 7.45032 0.575433 5.99827 1.29855C4.87926 1.85439 3.99672 2.49866 3.12573 3.40182C1.5395 5.04888 0.57814 7.0752 0.230121 9.48388C0.0609306 10.6532 0.0117018 10.8917 0.00170499 16.8645C-0.00213123 18.8554 0.00170499 21.4757 0.00170499 24.9902C0.00170499 35.4218 0.0132325 38.4721 0.0632356 39.0645C0.236281 41.1493 0.563134 42.4609 1.25532 43.8956C2.57815 46.642 5.10458 48.7037 8.08096 49.473C9.11154 49.7384 10.2498 49.8846 11.711 49.9538C12.3302 49.9808 18.6405 50 24.9547 50C31.2689 50 37.5831 49.9923 38.1868 49.9615C39.8788 49.8819 40.8613 49.75 41.9477 49.4692C44.9433 48.696 47.4236 46.6651 48.7733 43.8802C49.452 42.4801 49.7962 41.1185 49.9519 39.1425C49.9858 38.7117 50 31.8431 50 24.9837C50 18.1231 49.9846 11.2671 49.9508 10.8363C49.7931 8.82843 49.4489 7.47833 48.7483 6.05127C48.1734 4.88309 47.5351 4.0107 46.6084 3.11873C44.9544 1.53859 42.9317 0.576964 40.5214 0.229247C39.3535 0.060378 39.1209 0.0103748 33.1451 0H25.0082Z" fill="url(#paint2_radial_1741_473)"/>
<path d="M25.0082 0C14.5709 0 11.5184 0.0107715 10.925 0.0599998C8.78314 0.238091 7.45032 0.575433 5.99827 1.29855C4.87926 1.85439 3.99672 2.49866 3.12573 3.40182C1.5395 5.04888 0.57814 7.0752 0.230121 9.48388C0.0609306 10.6532 0.0117018 10.8917 0.00170499 16.8645C-0.00213123 18.8554 0.00170499 21.4757 0.00170499 24.9902C0.00170499 35.4218 0.0132325 38.4721 0.0632356 39.0645C0.236281 41.1493 0.563134 42.4609 1.25532 43.8956C2.57815 46.642 5.10458 48.7037 8.08096 49.473C9.11154 49.7384 10.2498 49.8846 11.711 49.9538C12.3302 49.9808 18.6405 50 24.9547 50C31.2689 50 37.5831 49.9923 38.1868 49.9615C39.8788 49.8819 40.8613 49.75 41.9477 49.4692C44.9433 48.696 47.4236 46.6651 48.7733 43.8802C49.452 42.4801 49.7962 41.1185 49.9519 39.1425C49.9858 38.7117 50 31.8431 50 24.9837C50 18.1231 49.9846 11.2671 49.9508 10.8363C49.7931 8.82843 49.4489 7.47833 48.7483 6.05127C48.1734 4.88309 47.5351 4.0107 46.6084 3.11873C44.9544 1.53859 42.9317 0.576964 40.5214 0.229247C39.3535 0.060378 39.1209 0.0103748 33.1451 0H25.0082Z" fill="url(#paint3_radial_1741_473)"/>
<path d="M25.0099 6.41992C19.9611 6.41992 19.3274 6.44198 17.3445 6.53215C15.3654 6.62271 14.0145 6.93581 12.8324 7.39521C11.6097 7.86967 10.5725 8.50437 9.53922 9.5373C8.50514 10.5699 7.86995 11.6063 7.39358 12.8277C6.93268 14.0092 6.61896 15.3595 6.5299 17.3364C6.44121 19.3179 6.41797 19.9514 6.41797 24.9965C6.41797 30.0416 6.44044 30.6728 6.53028 32.6543C6.62131 34.6319 6.93463 35.9818 7.39396 37.163C7.86918 38.3848 8.50434 39.4212 9.53804 40.4537C10.571 41.4871 11.6082 42.1233 12.8301 42.5978C14.0129 43.0572 15.3642 43.3703 17.3429 43.4608C19.3259 43.551 19.9591 43.5731 25.0076 43.5731C30.0568 43.5731 30.6885 43.551 32.6714 43.4608C34.6506 43.3703 36.003 43.0572 37.1858 42.5978C38.4081 42.1233 39.4438 41.4871 40.4767 40.4537C41.5108 39.4212 42.146 38.3848 42.6223 37.1634C43.0793 35.9818 43.3931 34.6315 43.486 32.6547C43.5751 30.6732 43.5983 30.0416 43.5983 24.9965C43.5983 19.9514 43.5751 19.3183 43.486 17.3367C43.3931 15.3591 43.0793 14.0092 42.6223 12.8281C42.146 11.6063 41.5108 10.5698 40.4767 9.5373C39.4426 8.50397 38.4085 7.86928 37.1847 7.39519C35.9995 6.93581 34.6478 6.62271 32.6687 6.53215C30.6858 6.44198 30.0545 6.41992 25.0041 6.41992H25.0099ZM23.3422 9.76758C23.8372 9.76681 24.3894 9.76758 25.0099 9.76758C29.9735 9.76758 30.5618 9.78538 32.5219 9.87439C34.3345 9.95722 35.3182 10.2598 35.9736 10.5141C36.8411 10.8508 37.4596 11.2533 38.1099 11.9035C38.7606 12.5537 39.1633 13.1729 39.5011 14.0398C39.7555 14.6938 40.0588 15.6769 40.1413 17.4881C40.2304 19.4463 40.2497 20.0346 40.2497 24.9922C40.2497 29.9498 40.2304 30.5381 40.1413 32.4964C40.0584 34.3076 39.7555 35.2906 39.5011 35.9447C39.1641 36.8116 38.7606 37.4289 38.1099 38.0786C37.4593 38.7288 36.8415 39.1313 35.9736 39.468C35.319 39.7235 34.3345 40.0253 32.5219 40.1081C30.5622 40.1972 29.9735 40.2165 25.0099 40.2165C20.0459 40.2165 19.4576 40.1972 17.4978 40.1081C15.6853 40.0246 14.7015 39.7219 14.0458 39.4676C13.1783 39.1309 12.5586 38.7284 11.9079 38.0783C11.2573 37.4281 10.8545 36.8104 10.5168 35.9431C10.2623 35.2891 9.95905 34.3061 9.87656 32.4948C9.78748 30.5366 9.76965 29.9483 9.76965 24.9876C9.76965 20.0269 9.78748 19.4417 9.87656 17.4834C9.95944 15.6722 10.2623 14.6892 10.5168 14.0344C10.8537 13.1675 11.2573 12.5483 11.9079 11.8981C12.5586 11.2479 13.1783 10.8454 14.0458 10.5079C14.7011 10.2525 15.6853 9.95064 17.4978 9.86742C19.2128 9.79001 19.8774 9.76681 23.3422 9.76291L23.3422 9.76758ZM34.9333 12.8521C33.7017 12.8521 32.7024 13.8494 32.7024 15.0805C32.7024 16.3112 33.7017 17.3097 34.9333 17.3097C36.1649 17.3097 37.1641 16.3112 37.1641 15.0805C37.1641 13.8498 36.1649 12.8513 34.9333 12.8513L34.9333 12.8521ZM25.0099 15.4566C19.7376 15.4566 15.463 19.7281 15.463 24.9965C15.463 30.2649 19.7376 34.5344 25.0099 34.5344C30.2822 34.5344 34.5553 30.2649 34.5553 24.9965C34.5553 19.7281 30.2818 15.4566 25.0095 15.4566H25.0099ZM25.0099 18.8043C28.4321 18.8043 31.2067 21.5765 31.2067 24.9965C31.2067 28.4161 28.4321 31.1887 25.0099 31.1887C21.5873 31.1887 18.8131 28.4161 18.8131 24.9965C18.8131 21.5765 21.5873 18.8043 25.0099 18.8043Z" fill="white"/>
</g>
<defs>
<radialGradient id="paint0_radial_1741_473" cx="0" cy="0" r="1" gradientUnits="userSpaceOnUse" gradientTransform="translate(48.3855 23.4356) rotate(164.25) scale(31.9472 23.0164)">
<stop stop-color="#FF005F"/>
<stop offset="1" stop-color="#FC01D8"/>
</radialGradient>
<radialGradient id="paint1_radial_1741_473" cx="0" cy="0" r="1" gradientUnits="userSpaceOnUse" gradientTransform="translate(13.2809 53.851) rotate(-90) scale(39.9109 42.3447)">
<stop stop-color="#FFCC00"/>
<stop offset="0.1242" stop-color="#FFCC00"/>
<stop offset="0.5672" stop-color="#FE4A05"/>
<stop offset="0.6942" stop-color="#FF0F3F"/>
<stop offset="1" stop-color="#FE0657" stop-opacity="0"/>
</radialGradient>
<radialGradient id="paint2_radial_1741_473" cx="0" cy="0" r="1" gradientUnits="userSpaceOnUse" gradientTransform="translate(26.2635 49.2949) rotate(-59.8703) scale(16.5035 21.4857)">
<stop stop-color="#FFCC00"/>
<stop offset="1" stop-color="#FFCC00" stop-opacity="0"/>
</radialGradient>
<radialGradient id="paint3_radial_1741_473" cx="0" cy="0" r="1" gradientUnits="userSpaceOnUse" gradientTransform="translate(6.78393 2.03599) rotate(164.274) scale(31.5928 10.7636)">
<stop stop-color="#780CFF"/>
<stop offset="1" stop-color="#820BFF" stop-opacity="0"/>
</radialGradient>
<clipPath id="clip0_1741_473">
<rect width="50" height="50" rx="25" fill="white"/>
</clipPath>
</defs>
</svg>
