<svg width="24" height="25" viewBox="0 0 24 25" fill="none" xmlns="http://www.w3.org/2000/svg">
<path d="M17.4004 1.05566C20.7809 1.05589 23.5 3.94316 23.5 7.74902C23.5 10.0636 22.5461 12.2024 20.7871 14.5479C19.0217 16.9018 16.4877 19.4108 13.3887 22.4736L13.3877 22.4746L12 23.8506L10.6123 22.4746L10.6113 22.4736C7.51233 19.4108 4.97829 16.9018 3.21289 14.5479C1.45393 12.2024 0.5 10.0636 0.5 7.74902C0.500048 3.94317 3.21905 1.05589 6.59961 1.05566C8.51968 1.05566 10.3848 2.03245 11.6074 3.58496L12 4.08398L12.3926 3.58496C13.6152 2.03245 15.4803 1.05566 17.4004 1.05566Z" stroke="white"/>
</svg>
