<svg width="20" height="21" viewBox="0 0 20 21" fill="none" xmlns="http://www.w3.org/2000/svg">
<path d="M17.5 18.0558L13.8808 14.4367M13.8808 14.4367C14.4999 13.8176 14.991 13.0826 15.326 12.2738C15.661 11.4649 15.8335 10.598 15.8335 9.7225C15.8335 8.847 15.6611 7.98007 15.326 7.17121C14.991 6.36236 14.4999 5.62741 13.8808 5.00834C13.2617 4.38926 12.5268 3.89819 11.7179 3.56315C10.9091 3.22811 10.0422 3.05566 9.16666 3.05566C8.29115 3.05566 7.42422 3.22811 6.61537 3.56315C5.80651 3.89819 5.07156 4.38926 4.45249 5.00834C3.20221 6.25861 2.49982 7.95435 2.49982 9.7225C2.49982 11.4907 3.20221 13.1864 4.45249 14.4367C5.70276 15.6869 7.3985 16.3893 9.16666 16.3893C10.9348 16.3893 12.6305 15.6869 13.8808 14.4367Z" stroke="black" stroke-width="1.5" stroke-linecap="round" stroke-linejoin="round"/>
</svg>
