<svg width="24" height="25" viewBox="0 0 24 25" fill="none" xmlns="http://www.w3.org/2000/svg">
<rect y="0.555664" width="24" height="24" rx="12" fill="white"/>
<path d="M12.3596 6.70575C12.6956 6.36936 13.2298 6.63521 13.2298 7.13863V17.9724C13.2298 18.4761 12.6956 18.742 12.3596 18.4056L9.91304 15.9547C9.65321 15.6943 9.3163 15.5502 8.96706 15.5501H7.56522C7.1501 15.5501 6.75198 15.366 6.45844 15.0384C6.16491 14.7109 6 14.2665 6 13.8032V11.3078C6 10.3428 6.70062 9.56092 7.56522 9.56092H8.96706C9.3163 9.56085 9.65321 9.41675 9.91304 9.15632L12.3596 6.70575ZM15.7157 7.36356C15.7832 7.28313 15.8766 7.23591 15.9754 7.23229C16.0741 7.22868 16.1701 7.26895 16.2422 7.34426L16.2428 7.34493L16.2437 7.34559L16.2455 7.34759L16.2511 7.35358L16.269 7.37288C16.2837 7.38951 16.3038 7.41281 16.3292 7.44275C16.3799 7.50231 16.4497 7.58915 16.5326 7.70295C16.7591 8.01571 16.9602 8.35031 17.1336 8.70281C17.5683 9.58055 18 10.8762 18 12.5555C18 14.2348 17.5683 15.5301 17.1336 16.4085C16.9602 16.7609 16.759 17.0954 16.5326 17.4081C16.449 17.5224 16.361 17.6325 16.2687 17.7381L16.2508 17.7574L16.2455 17.7634L16.2437 17.7654L16.2428 17.7661C16.2428 17.7661 16.4396 17.5465 16.2422 17.7664C16.1697 17.8392 16.0746 17.8774 15.9772 17.8728C15.8798 17.8683 15.7879 17.8213 15.7212 17.742C15.6545 17.6627 15.6183 17.5574 15.6203 17.4486C15.6223 17.3398 15.6624 17.2363 15.7321 17.1602L15.7327 17.1598L15.7336 17.1588L15.7431 17.1482C15.7524 17.138 15.7671 17.1214 15.7869 17.0983C15.826 17.0517 15.8841 16.9798 15.9548 16.8827C16.1531 16.6083 16.3292 16.3149 16.4813 16.0059C16.8665 15.2287 17.2547 14.0704 17.2547 12.5555C17.2547 11.0406 16.8665 9.88234 16.4813 9.10508C16.3293 8.79599 16.1531 8.50249 15.9548 8.228C15.8878 8.13603 15.8172 8.04743 15.7431 7.96248L15.7336 7.95183L15.7327 7.95083L15.7321 7.95017C15.6603 7.87467 15.6183 7.7705 15.6152 7.66048C15.6121 7.55046 15.6483 7.4439 15.7157 7.36356ZM14.5219 9.36128C14.5552 9.32122 14.5953 9.28888 14.6398 9.26609C14.6843 9.24331 14.7323 9.23053 14.7813 9.22849C14.8302 9.22645 14.879 9.23519 14.9249 9.25421C14.9708 9.27322 15.0129 9.30214 15.0487 9.33932L15.0678 9.35995L15.0487 9.33999L15.0496 9.34065L15.0511 9.34232L15.0553 9.34631L15.0678 9.35995C15.078 9.37104 15.0916 9.38646 15.1087 9.4062C15.1424 9.44546 15.1889 9.50169 15.2434 9.57423C15.3525 9.7193 15.496 9.93092 15.6388 10.2041C16.0131 10.9173 16.2107 11.7289 16.2112 12.5555C16.2112 13.5614 15.9241 14.3609 15.6388 14.9072C15.4957 15.1801 15.3525 15.392 15.2434 15.5371C15.1876 15.6114 15.1289 15.6829 15.0675 15.7514L15.0619 15.7577L15.0553 15.7647L15.0511 15.769L15.0496 15.7707L15.0487 15.7717C14.9762 15.845 14.8807 15.8835 14.7829 15.8789C14.6851 15.8743 14.5929 15.8269 14.5261 15.747C14.4594 15.6671 14.4234 15.5612 14.4261 15.452C14.4288 15.3428 14.4699 15.2391 14.5404 15.1635L14.541 15.1628L14.5458 15.1575L14.5711 15.1288C14.6061 15.0878 14.6399 15.0455 14.6725 15.0021C14.759 14.887 14.8767 14.7139 14.9948 14.488C15.3027 13.9019 15.4653 13.2349 15.4658 12.5555C15.4658 11.7313 15.2312 11.0752 14.9948 10.6233C14.8767 10.3971 14.7593 10.2241 14.6728 10.1093C14.6323 10.0556 14.5899 10.0038 14.5458 9.95388L14.5407 9.94822L14.541 9.94855C14.4688 9.87345 14.4262 9.76943 14.4226 9.65932C14.4191 9.54922 14.4548 9.44203 14.5219 9.36128Z" fill="#05353A"/>
</svg>
