<svg width="30" height="30" viewBox="0 0 30 30" fill="none" xmlns="http://www.w3.org/2000/svg">
<path d="M15.6756 4.0119C16.38 3.38003 17.5 3.8794 17.5 4.82503V25.175C17.5 26.1213 16.38 26.6207 15.6756 25.9888L10.5469 21.385C10.0022 20.8958 9.29589 20.6252 8.56375 20.625H5.625C4.75476 20.625 3.92016 20.2793 3.30481 19.664C2.68945 19.0486 2.34375 18.214 2.34375 17.3438V12.6563C2.34375 10.8438 3.8125 9.37503 5.625 9.37503H8.56375C9.29589 9.3749 10.0022 9.10423 10.5469 8.61503L15.6756 4.0119ZM22.7113 5.24753C22.8529 5.09644 23.0487 5.00775 23.2556 5.00096C23.4626 4.99416 23.6638 5.06981 23.815 5.21128L23.8162 5.21253L23.8181 5.21378L23.8219 5.21753L23.8337 5.22878L23.8713 5.26503C23.9021 5.29628 23.9442 5.34003 23.9975 5.39628C24.1038 5.50815 24.25 5.67128 24.4237 5.88503C24.8986 6.47251 25.3202 7.10102 25.6838 7.76315C26.595 9.4119 27.5 11.8457 27.5 15C27.5 18.1544 26.595 20.5875 25.6838 22.2375C25.3202 22.8994 24.8985 23.5277 24.4237 24.115C24.2486 24.3298 24.0641 24.5366 23.8706 24.735L23.8331 24.7713L23.8219 24.7825L23.8181 24.7863L23.8162 24.7875C23.8162 24.7875 24.2288 24.375 23.815 24.7882C23.6631 24.9249 23.4637 24.9966 23.2596 24.988C23.0554 24.9795 22.8627 24.8912 22.7229 24.7423C22.583 24.5933 22.507 24.3955 22.5113 24.1912C22.5155 23.9869 22.5997 23.7924 22.7456 23.6494L22.7469 23.6488L22.7487 23.6469L22.7687 23.6269C22.7883 23.6077 22.819 23.5765 22.8606 23.5332C22.9425 23.4457 23.0644 23.3107 23.2125 23.1282C23.6282 22.6127 23.9975 22.0616 24.3162 21.4813C25.1237 20.0213 25.9375 17.8457 25.9375 15C25.9375 12.1544 25.1237 9.97878 24.3162 8.51878C23.9975 7.93819 23.6282 7.38688 23.2125 6.87128C23.0721 6.69852 22.924 6.53211 22.7687 6.37253L22.7487 6.35253L22.7469 6.35065L22.7456 6.3494C22.5952 6.20758 22.5071 6.01191 22.5006 5.80526C22.4942 5.5986 22.5699 5.39844 22.7113 5.24753ZM20.2087 9.00003C20.2785 8.92478 20.3625 8.86402 20.4558 8.82122C20.549 8.77843 20.6498 8.75443 20.7524 8.75059C20.8549 8.74676 20.9573 8.76318 21.0535 8.7989C21.1497 8.83462 21.2379 8.88895 21.3131 8.95878L21.3531 8.99753L21.3131 8.96003L21.315 8.96128L21.3181 8.9644L21.3269 8.9719L21.3531 8.99753C21.3744 9.01836 21.4029 9.04732 21.4387 9.0844C21.5094 9.15815 21.6069 9.26378 21.7213 9.40003C21.95 9.67253 22.2506 10.07 22.55 10.5832C23.3348 11.9229 23.749 13.4473 23.75 15C23.75 16.8894 23.1481 18.3913 22.55 19.4175C22.25 19.93 21.95 20.3282 21.7213 20.6007C21.6043 20.7401 21.4812 20.8744 21.3525 21.0032L21.3406 21.015L21.3269 21.0282L21.3181 21.0363L21.315 21.0394L21.3131 21.0413C21.161 21.179 20.9608 21.2513 20.7558 21.2426C20.5508 21.234 20.3575 21.145 20.2175 20.995C20.0776 20.8449 20.0023 20.6458 20.0079 20.4407C20.0135 20.2356 20.0996 20.041 20.2475 19.8988L20.2487 19.8975L20.2588 19.8875L20.3119 19.8338C20.3852 19.7567 20.4561 19.6773 20.5244 19.5957C20.7056 19.3794 20.9525 19.0544 21.2 18.63C21.8456 17.5292 22.1864 16.2762 22.1875 15C22.1875 13.4519 21.6956 12.2194 21.2 11.3707C20.9525 10.9457 20.7062 10.6207 20.525 10.405C20.4401 10.3043 20.3513 10.2069 20.2588 10.1132L20.2481 10.1025L20.2487 10.1032C20.0973 9.96208 20.0081 9.76668 20.0006 9.55986C19.9931 9.35305 20.0679 9.1517 20.2087 9.00003Z" fill="#05353A"/>
</svg>
